<svg xmlns="http://www.w3.org/2000/svg" width="34" height="42" viewBox="0 0 34 42">
  <g fill="none" fill-rule="evenodd" transform="translate(0 2)">
    <path fill="#FFF" fill-rule="nonzero" d="M9.90583635,32.587044 L6.91363948,22.4800876 L1.42218871,20.9253398 C0.393166954,20.6340016 -0.212658375,19.5350921 0.0690399596,18.4708567 C0.350738294,17.4066213 1.41328686,16.7800644 2.44230862,17.0714025 L8.95947343,18.9165521 C9.59809495,19.0973596 10.1026857,19.6038358 10.2965331,20.258608 L13.1817654,30.0042625 L26.0772026,30.0042625 L30.2984088,20.0416556 C30.7266133,19.0310361 31.8659025,18.5707743 32.8430824,19.0136322 C33.8202624,19.4564901 34.2652949,20.6347663 33.8370903,21.6453859 L29.1091315,32.8039964 C28.8012597,33.5306146 28.1068616,34 27.3397907,34 L11.7529559,34 C10.9039189,34 10.1544075,33.4266605 9.90583635,32.587044 Z M13.5,40 C12.1192881,40 11,38.8807119 11,37.5 C11,36.1192881 12.1192881,35 13.5,35 C14.8807119,35 16,36.1192881 16,37.5 C16,38.8807119 14.8807119,40 13.5,40 Z M25.5,40 C24.1192881,40 23,38.8807119 23,37.5 C23,36.1192881 24.1192881,35 25.5,35 C26.8807119,35 28,36.1192881 28,37.5 C28,38.8807119 26.8807119,40 25.5,40 Z"/>
    <rect width="17" height="17" x="11.278" y="2.278" stroke="#FFF" fill="#FFF" stroke-width="3" rx="3" transform="rotate(45 20 10)"/>
  </g>
</svg>
